<svg xmlns="http://www.w3.org/2000/svg" width="222" height="140.206" viewBox="0 0 222 140.206">
  <path id="icon-hand-shake-2" d="M221.563,66.841l-31.295-55.7a3.325,3.325,0,0,0-2.017-1.574A3.436,3.436,0,0,0,185.7,9.9l-20.213,11.9a3.34,3.34,0,0,0-1.219,4.5l1.84,3.258-10.2,4.787a10.459,10.459,0,0,1-5.785,1.042c-2.637-.377-7.89-1.285-17.952-3.457a55.494,55.494,0,0,0-10.594-1.241c-6.6-.111-19.016.022-27.837,2.416a13.036,13.036,0,0,0-2.637,1.042l-3.258,1.684a14.176,14.176,0,0,0-4.987,4.278l-.488.864a112.136,112.136,0,0,1-12.567-1.84,8.7,8.7,0,0,1-3.723-1.729l-9.353-7.225,1.995-3.192a3.35,3.35,0,0,0-.953-4.521L39.6,10.169a3.347,3.347,0,0,0-2.5-.488,3.3,3.3,0,0,0-2.15,1.507L.5,66.42a3.338,3.338,0,0,0,.931,4.5l18,12.411a3.445,3.445,0,0,0,2.549.51,3.331,3.331,0,0,0,2.15-1.507l1.4-2.239,5.541,4.455A24.629,24.629,0,0,1,36.1,89.47L39.357,93.7l-2.682,3.014a12.233,12.233,0,0,0,9.176,20.346c.288,0,.576,0,.82-.022a12.7,12.7,0,0,0,14.716,12.9,11.772,11.772,0,0,0,1.8-.421,11.857,11.857,0,0,0,4.765,7.07,12.01,12.01,0,0,0,6.981,2.239,11.839,11.839,0,0,0,2.394-.244,12.212,12.212,0,0,0,2.5-.8,11.575,11.575,0,0,0,20.568,2.172l.687-1.086c5.053,2.349,15.935,7.27,23.981,10.151a11.275,11.275,0,0,0,3.746.643,11.054,11.054,0,0,0,9.951-6.383,10.9,10.9,0,0,0,1.02-4.832,11.9,11.9,0,0,0,11.747-6.494,11.523,11.523,0,0,0,1.241-5.474,11.632,11.632,0,0,0,11.215-4.411,11.474,11.474,0,0,0,2.061-9.065,9.329,9.329,0,0,0-.266-1.064,12.061,12.061,0,0,0,5.962-3.524,11.537,11.537,0,0,0,3.059-8.954,12.157,12.157,0,0,0-.554-2.637A66.9,66.9,0,0,0,186.19,86.611a13.826,13.826,0,0,1,3.014-2.416l6.206-4.809,1.862,3.147a3.34,3.34,0,0,0,4.721,1.042L220.565,71.1A3.131,3.131,0,0,0,221.563,66.841ZM51.348,26.216,20.319,75.884,7.8,67.24l30.9-49.6Zm80.187,61.659a3.325,3.325,0,0,0-4.942,3.635A3.371,3.371,0,0,0,128.1,93.57l29.167,17.62a4.832,4.832,0,0,1,2.238,3.192,4.734,4.734,0,0,1-.864,3.79,4.85,4.85,0,0,1-6.161,1.352l-29.522-16.379-1.95-1.086a3.328,3.328,0,0,0-3.214,5.829l25.621,14.207a5.255,5.255,0,0,1-4.876,9.309l-25.355-12.589a3.325,3.325,0,0,0-2.948,5.962l7.092,3.524v.022l13.365,6.627a4.258,4.258,0,0,1,2.039,5.652,4.305,4.305,0,0,1-5.408,2.261c-7.558-2.7-17.93-7.4-22.983-9.73a11.441,11.441,0,0,0-4.477-13.076,11.244,11.244,0,0,0-5.962-2.017,11.959,11.959,0,0,0-11.414-14.384,11.979,11.979,0,0,0-21.3-9.442l-.222.31a11.719,11.719,0,0,0-2.881-3.79,11.9,11.9,0,0,0-13.763-1.418L41.374,85.48A31.594,31.594,0,0,0,35.1,79.341l-6.051-4.854L53.121,35.923l8.8,6.782A15.256,15.256,0,0,0,68.436,45.7c4.211.842,7.757,1.352,10.372,1.662A55.346,55.346,0,0,1,71.1,57.266l-2.283,2.327A10.414,10.414,0,0,0,65.8,66.952a8.917,8.917,0,0,0,6.383,8.6,14.251,14.251,0,0,0,5.231.421c1.507-.155,3.3-.443,5.341-.82A22.342,22.342,0,0,0,96.317,66.73l3.9-5.1a6.978,6.978,0,0,1,3.59-2.46l2.5-.709a7.006,7.006,0,0,1,5.1.488c8.489,4.366,30.851,17.819,54.766,37.633a5.08,5.08,0,0,1,1.995,3.59,5.009,5.009,0,0,1-1.308,3.812,5.488,5.488,0,0,1-6.8.975l-10.151-5.984ZM86.543,131.159l2.615-4.145a4.838,4.838,0,0,1,3.147-2.261,5.512,5.512,0,0,1,1.02-.111,4.82,4.82,0,0,1,2.77.864,4.952,4.952,0,0,1,1.374,6.76l-2.66,4.167a4.9,4.9,0,1,1-8.267-5.275Zm-16.068-7.425,7.38-11.126a5.362,5.362,0,0,1,3.834-2.305,4.451,4.451,0,0,1,.554-.022,5.292,5.292,0,0,1,4.455,8.156l-7.092,11.237a5.317,5.317,0,0,1-3.568,2.438,5.558,5.558,0,0,1-4.255-.909A5.333,5.333,0,0,1,70.475,123.734ZM54.561,113.65l4.211-5.474,1.153-1.485,1.175-1.529h0l5.364-6.937a5.257,5.257,0,0,1,3.568-2.061A5.384,5.384,0,0,1,75.2,104.5L64.468,120.765a6.01,6.01,0,0,1-4.122,2.66,6.1,6.1,0,0,1-5.785-9.774ZM41.684,101.128l4.322-4.9.776-.643a5.347,5.347,0,0,1,7.912,7.026l-4.388,5.652a5.547,5.547,0,0,1-3.967,2.15h0a5.608,5.608,0,0,1-4.654-9.286Zm128.747-9.663-.8-.665c-23.981-19.77-46.565-33.356-55.187-37.789a13.689,13.689,0,0,0-9.974-.953l-2.527.709a13.574,13.574,0,0,0-7.026,4.809l-3.834,5.031a15.8,15.8,0,0,1-9.53,5.94c-1.862.355-3.48.6-4.809.754a6.916,6.916,0,0,1-2.726-.2,2.253,2.253,0,0,1-1.529-2.261A3.724,3.724,0,0,1,73.578,64.2l2.3-2.327A61.371,61.371,0,0,0,86.388,47.515l1.6-3.059,1.108-.731-.665-.044a7.943,7.943,0,0,1,2.416-1.95L94.1,40.045a7.073,7.073,0,0,1,1.352-.532c7.89-2.128,19.659-2.283,25.976-2.172a47.45,47.45,0,0,1,9.309,1.108c10.173,2.194,15.67,3.147,18.484,3.568a16.893,16.893,0,0,0,9.486-1.618l10.727-5.031,22.585,38.343-6.538,5.1a21.069,21.069,0,0,0-4.167,3.413A61.98,61.98,0,0,1,170.432,91.465Zm43.839-24.047-13.076,8.777L173.623,29.407l-1.995-3.524,14.495-8.533Z" transform="translate(-0.004 -9.46)" fill="#005670"/>
</svg>
